<svg id="SVGDoc" width="320" height="106" xmlns="http://www.w3.org/2000/svg" version="1.1" xmlns:xlink="http://www.w3.org/1999/xlink" xmlns:avocode="https://avocode.com/" viewBox="0 0 320 106"><defs><path d="M514.59044,359.57585c0,0 1.7462,-1.34322 0.47013,-3.96254c-1.27608,-2.61931 -4.76849,-2.14916 -5.91024,-1.47755c-1.14175,0.67162 -5.64158,5.30577 -7.52212,9.80563c-1.94769,4.56699 -1.14175,5.57442 -0.67162,5.57442c0.47013,0 1.94769,-0.94028 1.94769,-0.94028c0,0 0.33582,-0.06715 1.9477,-3.42522c1.61188,-3.3581 3.69389,-5.70876 5.17145,-6.71619c1.4104,-1.07458 2.95512,-1.67903 2.75363,-0.53728c-0.33581,1.00741 0.06716,4.09685 1.81337,1.67902z" id="Path-0"/><path d="M530.84358,360.11315c0,0 -5.50726,5.50726 -9.33548,6.64901c-3.82822,1.20892 -3.42525,1.20892 -3.82822,1.20892c-0.53729,0 -0.20149,-1.34323 -0.06716,-2.01486c0.06716,-0.53728 0.13433,-1.67904 0.13433,-2.21632c0,-0.40298 0.73877,-2.21635 0.53729,-2.82079c-0.73878,-2.08202 -1.54472,-3.42526 -6.98482,1.07458c-5.4401,4.49983 -7.7236,6.91766 -8.32806,6.31321c-0.60445,-0.60446 -2.55215,1.00743 -2.14918,1.20891c0.40297,0.20149 0.47014,0.8731 0.47014,0.8731c0,0 0.80594,3.6939 5.37294,-0.06717c4.567,-3.76104 8.12657,-7.25346 8.86535,-7.38778c0.73877,-0.13432 -0.40297,1.81335 0.06716,5.17146c0.47013,3.42524 3.6939,2.82079 4.29836,2.61929c0.60445,-0.20146 7.38779,-3.22374 10.41008,-6.64899c3.08943,-3.3581 0.53728,-3.96255 0.53728,-3.96255z" id="Path-1"/><path d="M601.69926,355.00885c-0.13434,-0.06716 -0.33582,0.06716 -0.33582,0.20149c-1.47757,4.9028 -2.95514,8.93251 -2.28351,10.61155c0.73877,1.88053 2.35065,2.08202 3.22375,1.67905c0.60446,-0.20149 5.97739,-3.42525 10.94739,-8.66388c0,0 -2.48502,43.05069 -8.66385,56.08006c-6.31323,13.1637 -11.0817,14.77557 -15.17856,13.76816c-4.16406,-1.00742 -7.38785,-12.96222 4.16403,-28.74522c10.61154,-14.50694 23.43939,-30.8944 34.38675,-37.47626c10.94739,-6.58185 2.68652,-6.78335 2.68652,-6.78335c0,0 -22.76785,15.91735 -40.22989,42.31192c-17.46207,26.39455 -3.29095,33.37938 -1.4776,33.64804c1.81342,0.33578 10.61157,2.82077 18.26801,-15.71587c7.65646,-18.46945 9.134,-60.24407 9.134,-60.24407c0,0 0.13434,-1.7462 -0.80591,-2.01485c-0.94025,-0.33581 -1.81339,0.26865 -5.50726,4.0297c-3.22375,3.29093 -7.32065,6.11172 -8.26089,6.78333c-0.06717,0.06717 -0.13434,0 -0.06717,-0.06716c0.40292,-0.87309 1.54471,-3.62672 1.81332,-5.10429c0.33585,-2.21633 -0.20148,-3.89536 -1.81332,-4.29834z" id="Path-2"/><path d="M532.3883,355.00885c-0.13433,-0.06716 -0.33581,0.06716 -0.33581,0.20148c-1.47757,4.90281 -2.95512,8.93253 -2.28351,10.61156c0.73878,1.88053 2.35067,2.08203 3.22376,1.67905c0.60445,-0.20149 5.97739,-3.42525 10.94737,-8.66387c0,0 -2.48498,43.05068 -8.66386,56.08007c-6.31321,13.16371 -11.0817,14.77559 -15.17857,13.76819c-4.16402,-1.00745 -7.38779,-12.96223 4.16403,-28.74527c10.61155,-14.50693 23.43946,-30.8944 34.38683,-37.47626c10.94737,-6.58184 2.68646,-6.78333 2.68646,-6.78333c0,0 -22.835,15.85017 -40.29705,42.24475c-17.46206,26.39461 -3.29093,33.37939 -1.47757,33.64807c1.81337,0.3358 10.61156,2.82079 18.268,-15.71585c7.65646,-18.46948 9.134,-60.24411 9.134,-60.24411c0,0 0.13432,-1.74619 -0.80594,-2.01485c-0.94028,-0.3358 -1.81337,0.26866 -5.50726,4.02971c-3.22377,3.29092 -7.32065,6.1117 -8.26088,6.78332c-0.06718,0.06718 -0.13435,0 -0.06718,-0.06713c0.40298,-0.87312 1.54472,-3.62675 1.81335,-5.10431c0.33582,-2.14918 -0.13432,-3.82822 -1.74619,-4.2312z" id="Path-3"/><path d="M560.26045,357.56099c0,0 -4.23122,9.93993 -0.87311,11.01452c2.68646,0.87311 6.85049,-6.8505 6.85049,-6.8505c0,0 4.43265,-6.4475 4.76845,-6.4475c0.47015,0 0.80597,0.40296 0.06718,5.50724c-1.54472,11.55183 9.20116,8.73104 9.20116,7.32063c0,-4.02971 -5.30577,2.35068 -7.05196,-3.1566c-0.67163,-2.21632 1.0746,-6.58186 0.87309,-8.66386c-0.13434,-1.61189 -1.07458,-3.96254 -4.56702,-3.76105c-2.41782,0.13432 -5.30577,6.58184 -6.24602,7.32062c-0.94028,0.73878 0.73875,-1.88052 0.73875,-1.88052z" id="Path-4"/><path d="M587.19229,349.16578c0,0 2.95508,2.41784 0.47015,3.22378c-2.48499,0.80594 -2.68649,-2.01486 -2.68649,-2.01486c0,0 0.60443,-0.60445 1.14175,-0.94027c0.60449,-0.33581 -0.60449,-1.14174 1.07458,-0.26865z" id="Path-5"/><path d="M586.11773,356.55358c0,0 -0.13434,-2.28351 -2.48502,-2.48499c-1.74622,-0.13432 -5.70874,10.27575 -4.96997,13.36519c0.40298,2.35067 4.49985,6.04457 10.88025,2.75363c6.31314,-3.3581 12.89502,-9.73847 12.89502,-9.73847v-2.14916c0,0 -11.9548,7.85793 -14.30548,8.99966c-2.35065,1.14177 -5.84302,1.54473 -6.17886,1.27608c-0.33578,-0.26863 0.06714,-5.84306 2.75363,-10.81303c0.87311,-1.61188 1.41043,-1.20891 1.41043,-1.20891z" id="Path-6"/><path d="M496.05379,335.73343c-0.20148,0 -0.40297,-0.06716 -0.60446,-0.06716h-0.80594c-0.40297,0 -0.80594,0 -1.20891,0c-0.40297,0 -0.80594,0 -1.27607,0.06716c-0.26865,0 -0.53729,0 -0.80594,0.06716c-0.26865,0.06716 -0.47013,0.13432 -0.60446,0.20149c-0.13432,0.06716 -0.26865,0.26865 -0.26865,0.40297c-0.06716,0.40297 0.06716,0.67162 0.40297,0.80594c0.40297,0.20148 0.73878,0.26865 1.07459,0.26865c1.4104,0.26865 2.61931,0.33581 3.62674,0.33581c-1.14175,2.95512 -2.21634,6.24604 -3.22377,9.93994c-1.00743,3.62673 -1.67904,7.45495 -1.94769,11.35033c-0.26865,2.14918 -0.33581,4.09687 -0.20149,5.91023c0.06716,0.73877 0.13432,1.54472 0.26865,2.2835c0.13432,0.73877 0.33581,1.41039 0.60446,2.01485c0.26865,0.60445 0.60446,1.14175 1.07459,1.54472c0.47013,0.40297 0.94026,0.73878 1.61188,0.87311c0.60446,0.06715 1.00743,0 1.34323,-0.26865c0.33581,-0.26865 0.53729,-0.60446 0.73878,-1.00743c0.20148,-0.40297 0.33581,-0.94027 0.40297,-1.47756c0.06716,-0.47013 0.26865,-1.14175 0.47013,-2.01485c0.20149,-0.8731 0.53729,-2.01485 1.00743,-3.29093c0.47013,-1.34323 1.07459,-2.88795 1.81337,-4.70132c0.73878,-1.81337 1.74621,-3.96255 2.95512,-6.31321c0.06716,-0.26864 0.13432,-0.47013 0.20148,-0.67162c0.06716,-0.13432 0.06716,-0.26865 0.06716,-0.40297c0,-0.13432 -0.06716,-0.26865 -0.20148,-0.26865c-0.33581,-0.06716 -0.80594,0.13433 -1.47756,0.73878c-0.67162,0.60445 -1.47756,1.88053 -2.41782,3.89538c-0.26865,0.67162 -0.67162,1.54472 -1.07459,2.55215c-0.40297,1.00743 -0.8731,2.08201 -1.27607,3.22376c-0.40297,1.14175 -0.80594,2.2835 -1.14175,3.42525c-0.33581,1.14175 -0.60446,2.21633 -0.73878,3.1566c-0.13432,-0.73878 -0.20148,-1.14176 -0.26865,-1.61189c-0.06716,-0.47013 -0.13432,-1.07459 -0.20148,-1.7462c-0.20149,-2.2835 -0.13432,-4.63416 0.20148,-7.05198c0.33581,-2.41782 0.8731,-4.83565 1.47756,-7.18631c0.67162,-2.35066 1.4104,-4.567 2.2835,-6.78334c0.8731,-2.14918 1.74621,-4.16403 2.55215,-5.9774c2.08202,0.06716 4.16403,0.06716 6.24604,0c0.33581,0 0.80594,0 1.4104,0c0.60445,0 1.27607,-0.06716 1.88053,-0.13432c0.60446,-0.06716 1.20891,-0.26865 1.67904,-0.40297c0.47013,-0.20148 0.80594,-0.47013 0.94027,-0.94026c0.06716,-0.26865 -0.06716,-0.40297 -0.60446,-0.47013c-0.20148,-0.06716 -0.40297,-0.06716 -0.73878,-0.06716c-3.22376,-0.13432 -6.51469,-0.20148 -9.73845,-0.20148c0.8731,-1.67904 1.61188,-3.08944 2.2835,-4.16403c0.67162,-1.14175 1.14175,-1.81337 1.34323,-2.08201c0.33581,-0.47013 0.47013,-0.94026 0.40297,-1.27607c-0.06716,-0.40297 -0.26865,-0.67162 -0.53729,-0.94026c-0.13432,-0.40297 -0.47013,-0.60446 -0.80594,-0.67162c-0.40297,-0.13432 -0.80594,-0.20149 -1.07459,-0.20149c-0.33581,0 -0.60445,0 -0.8731,0.06716c-0.26865,0.06716 -0.53729,0.13432 -0.73878,0.20149l-0.67162,0.20149c-0.06716,0.06716 -0.20148,0.06716 -0.20148,0.13432c-0.06716,0.06716 -0.13432,0.20149 -0.26865,0.40297c-0.06716,0.06716 -0.47013,0.8731 -1.20891,2.35066c-0.73878,1.47756 -1.61188,3.42525 -2.68647,5.91023c-0.13432,0.06716 -0.26865,0.13432 -0.47013,0.06716z" id="Path-7"/><path d="M810.03497,369.58295v1.14175h-9.93988v-1.14175c1.14173,0 1.9477,-0.20148 2.41791,-0.5373c0.53723,-0.3358 0.53723,-0.94027 0,-1.67905l-5.91022,-8.26089l-4.16412,3.55958v4.29836c0,0.94026 0.26868,1.61187 0.73883,2.01484c0.40296,0.40297 1.20887,0.60445 2.28345,0.60445v1.14175h-8.66388v-1.14175c1.00751,0 1.74616,-0.20147 2.21637,-0.60445c0.47021,-0.40297 0.73883,-1.07459 0.73883,-2.01484v-24.04392c0,-0.80595 -0.26862,-1.34324 -0.73883,-1.67905c-0.40301,-0.26864 -1.07458,-0.40297 -2.01483,-0.40297l-0.20154,-0.60445l5.57452,-2.08202v22.835l9.60406,-8.2609c0.73877,-0.67161 0.8059,-1.27607 0.33575,-1.67904c-0.47009,-0.33581 -1.3432,-0.53729 -2.6864,-0.53729v-1.14175h8.93256v1.14175c-1.00757,0 -1.81342,0.20148 -2.55231,0.53729c-0.67157,0.47014 -1.34314,1.00743 -2.01477,1.61189l-5.70874,4.90281l1.41028,1.81337l6.04468,8.32806c0.53736,0.67161 1.07465,1.14175 1.74622,1.47755c0.67163,0.33582 1.4776,0.47013 2.55206,0.40297zM779.27496,367.50097c0,0.8731 0.20147,1.41039 0.60449,1.81336c0.40296,0.3358 1.20893,0.47012 2.41779,0.47012v1.14175h-8.73102v-1.14175c1.07459,0 1.81336,-0.20147 2.28351,-0.47012c0.47009,-0.26866 0.67157,-0.87311 0.67157,-1.74621v-13.701c0,-0.67162 -0.13428,-1.14175 -0.53723,-1.47756c-0.47022,-0.33581 -1.27613,-0.53729 -2.41785,-0.53729l-0.13434,-0.67162l5.84308,-2.08202zM766.11121,367.03083c0,1.00743 0.20154,1.67905 0.87317,2.01484c0.47003,0.40297 1.20893,0.60446 2.28345,0.60446v1.14175h-8.66382v-1.14175c1.07465,0 1.81336,-0.20149 2.28345,-0.60446c0.47015,-0.40296 0.67163,-1.07458 0.67163,-2.01484v-11.68615c0,-1.4104 -0.26862,-2.41782 -0.80591,-3.08944c-0.60449,-0.80594 -1.61194,-1.20891 -3.02228,-1.20891c-1.41046,0 -2.68653,0.33579 -3.96265,0.94025c-1.00726,0.53729 -2.14911,1.34323 -3.42517,2.41782v12.49208c0,0.94027 0.20148,1.61188 0.67169,2.01485c0.40296,0.40297 1.20887,0.60446 2.28345,0.60446v1.14174h-8.66388v-1.14174c1.07465,0 1.81342,-0.20149 2.28351,-0.60446c0.47015,-0.40296 0.67163,-1.07458 0.67163,-2.01485v-13.09655c0,-1.00742 -0.13427,-1.61188 -0.53735,-1.94769c-0.40296,-0.3358 -1.14166,-0.47013 -2.28351,-0.47013l-0.13428,-0.67162l5.6416,-1.7462v3.96255l0.20142,-0.20149c1.41041,-1.14175 2.55219,-1.94769 3.42542,-2.41783c1.47747,-0.80593 3.02209,-1.2089 4.56689,-1.2089c1.74621,0 3.15655,0.60446 4.164,1.67904c1.00751,1.14175 1.47754,2.68647 1.47754,4.70132zM740.6569,368.91136c0.6045,-0.40297 1.27607,-0.94026 1.74628,-1.61187l0.53717,0.33581c-0.6715,1.27607 -1.54461,2.2835 -2.55212,2.95512c-0.94018,0.60444 -2.01483,0.94026 -3.08929,0.94026c-1.34333,0 -2.41797,-0.40298 -3.22382,-1.20891c-0.8059,-0.87311 -1.20892,-2.21634 -1.20892,-3.89539v-15.51437h-3.42523v-0.94027c1.61182,-0.20149 2.8208,-0.87311 3.69379,-2.08202c0.94037,-1.27608 1.41052,-3.15661 1.5448,-5.70875h0.94031v7.38779h6.04456v1.34324h-6.04456v16.11882c0,0.80594 0.26862,1.4104 0.73865,1.88052c0.53741,0.47014 1.27612,0.67162 2.21643,0.67162c0.67169,0 1.34326,-0.20148 2.08197,-0.67162zM712.04596,352.4567c-1.4104,1.54472 -2.14911,3.49241 -2.28345,5.84308h13.96967c-0.13428,-2.75363 -0.80591,-4.83564 -1.94757,-6.17888c-1.14185,-1.27607 -2.75379,-1.94769 -4.76868,-1.94769c-1.88049,0 -3.55957,0.73878 -4.96997,2.2835zM722.59046,368.84419c1.34326,-0.67161 2.55213,-1.74621 3.69391,-3.22376l0.67163,0.53729c-1.14179,1.67903 -2.35071,2.88793 -3.69391,3.76105c-1.67908,1.00742 -3.62677,1.54472 -5.97742,1.54472c-3.15668,0 -5.64161,-1.00744 -7.58936,-3.08945c-1.88049,-2.08202 -2.82074,-4.83564 -2.82074,-8.19373c0,-3.15662 0.94025,-5.84308 2.7536,-7.92509c1.88062,-2.14917 4.36554,-3.22376 7.45496,-3.22376c2.9552,0 5.23871,0.8731 6.98486,2.68646c1.74621,1.88053 2.61932,4.43267 2.61932,7.72361h-16.9248c0,3.62672 0.80597,6.38036 2.41779,8.12656c1.4104,1.54472 3.29095,2.35067 5.7088,2.35067c1.74621,0 3.35803,-0.33581 4.70135,-1.07458zM697.67341,350.50901v-1.2089h7.92505v1.14175c-1.00745,0 -1.81336,0.13432 -2.35059,0.40297c-0.60449,0.26865 -1.0075,0.80594 -1.34332,1.47756l-7.52209,19.1411h-0.73883l-1.74622,-4.29836l-6.04456,-14.84275c-0.33575,-0.80594 -0.73871,-1.34324 -1.20886,-1.54472c-0.40295,-0.20148 -1.14178,-0.33581 -2.08203,-0.33581v-1.14174h8.99969v1.14174c-1.20893,0 -2.01484,0.13433 -2.41779,0.33581c-0.53736,0.33581 -0.67164,0.80595 -0.40302,1.54472l6.04456,14.97707l5.7088,-14.90991c0.26861,-0.53729 0.13433,-1.00742 -0.33588,-1.34322c-0.53723,-0.33582 -1.3432,-0.5373 -2.55206,-0.5373zM676.98755,360.31463c0,-2.88795 -0.6045,-5.23861 -1.74622,-7.11914c-1.3432,-2.08201 -3.15658,-3.08943 -5.50729,-3.08943c-2.41775,0 -4.23108,1.00742 -5.57437,3.08943c-1.14176,1.88052 -1.67899,4.23119 -1.67899,7.11914c0,2.82079 0.53724,5.17145 1.67899,6.98482c1.34329,2.08202 3.15655,3.1566 5.57437,3.1566c2.3507,0 4.16409,-1.07458 5.50729,-3.1566c1.14173,-1.81337 1.74622,-4.16402 1.74622,-6.98482zM677.45764,352.52387c1.67908,2.08202 2.48505,4.70133 2.48505,7.85793c0,3.08943 -0.80597,5.64158 -2.48505,7.72359c-1.88043,2.2835 -4.43261,3.42525 -7.7236,3.42525c-3.29089,0 -5.91019,-1.14176 -7.72351,-3.42525c-1.61191,-2.082 -2.41782,-4.63415 -2.41782,-7.72359c0,-3.15661 0.80591,-5.77592 2.41782,-7.85793c1.81332,-2.2835 4.43262,-3.42525 7.72351,-3.42525c3.29098,0 5.84317,1.14175 7.7236,3.42525zM652.40635,361.45639c1.27606,1.07458 1.94769,2.48498 1.88052,4.36551c0,1.81338 -0.806,3.3581 -2.35068,4.43268c-1.3432,0.94026 -3.02228,1.41039 -5.03711,1.41039c-0.67163,0 -1.27609,-0.06716 -1.94769,-0.20148c-0.40296,-0.06716 -0.87311,-0.20149 -1.54474,-0.40298c-0.67163,-0.20148 -1.07455,-0.26865 -1.34326,-0.3358c-0.40295,-0.06716 -0.7388,-0.06716 -1.07458,0.06715l-1.81335,0.73878l-2.61929,-6.85049l0.53729,-0.13433c1.34329,1.74621 2.61933,3.08945 3.82828,3.96254c1.81333,1.34325 3.82819,2.01487 6.04456,2.01487c1.47751,0 2.75357,-0.40297 3.69388,-1.27608c1.00742,-0.87311 1.47754,-2.01485 1.47754,-3.42525c0,-1.00743 -0.47012,-1.88052 -1.4104,-2.55214c-0.94025,-0.67163 -2.55218,-1.4104 -4.9028,-2.08202c-3.35812,-1.00743 -5.64163,-2.08202 -6.91766,-3.22377c-1.14173,-0.94026 -1.67902,-2.21634 -1.67902,-3.76106c0,-1.47755 0.60443,-2.6193 1.81332,-3.55957c1.27609,-0.94026 3.02231,-1.41039 5.10431,-1.41039c0.67157,0 1.34323,0.06716 2.01486,0.20148c0.40296,0.06716 0.87308,0.20149 1.47754,0.40297c0.47007,0.06716 0.80594,0.20148 1.00739,0.20148c0.26874,0.06716 0.53738,0 0.73883,-0.06716l1.67911,-0.80594l2.55209,6.44753l-0.73883,0.33581c-0.67157,-1.27607 -1.74622,-2.41783 -3.08939,-3.49241c-1.81341,-1.4104 -3.69391,-2.08202 -5.57446,-2.08202c-1.47757,0 -2.55215,0.26864 -3.42523,0.94026c-0.87314,0.67162 -1.27609,1.61189 -1.27609,2.8208c0,1.00743 0.5373,1.81337 1.61188,2.48499c0.87313,0.53729 2.41781,1.14175 4.70135,1.88053c3.15659,0.94026 5.30573,1.94769 6.58185,2.95512z" id="Path-8"/><path d="M779.4763,339.36017c0,0 1.41034,4.49984 -1.81342,5.57442c-3.22369,1.07459 -3.42517,-2.75363 -3.42517,-2.75363c0,0 0.80585,-0.8731 1.47742,-1.27608c0.73889,-0.40297 1.5448,-2.68647 3.76117,-1.54472z" id="Path-9"/></defs><desc>Generated with Avocode.</desc><g transform="matrix(1,0,0,1,-490,-326)"><g><title>Group 16</title><g><title>Path 13</title><use xlink:href="#Path-0" fill="#e73e2d" fill-opacity="1"/></g><g><title>Path 14</title><use xlink:href="#Path-1" fill="#e73e2d" fill-opacity="1"/></g><g><title>Path 15</title><use xlink:href="#Path-2" fill="#e73e2d" fill-opacity="1"/></g><g><title>Path 16</title><use xlink:href="#Path-3" fill="#e73e2d" fill-opacity="1"/></g><g><title>Path 17</title><use xlink:href="#Path-4" fill="#e73e2d" fill-opacity="1"/></g><g><title>Path 18</title><use xlink:href="#Path-5" fill="#e73e2d" fill-opacity="1"/></g><g><title>Path 19</title><use xlink:href="#Path-6" fill="#e73e2d" fill-opacity="1"/></g><g><title>Path 20</title><use xlink:href="#Path-7" fill="#e73e2d" fill-opacity="1"/></g><g><title>Group 12</title><g><title>Group 11</title><g><title>Path 21</title><use xlink:href="#Path-8" fill="#070707" fill-opacity="1"/></g></g></g><g><title>Path 22</title><use xlink:href="#Path-9" fill="#e73e2d" fill-opacity="1"/></g></g></g></svg>