<svg xmlns="http://www.w3.org/2000/svg" xmlns:xlink="http://www.w3.org/1999/xlink" width="320" height="106" viewBox="0 0 320 106"><defs><path id="7xv7a" d="M514.59 359.58s1.75-1.35.47-3.97-4.77-2.15-5.91-1.47c-1.14.67-5.64 5.3-7.52 9.8-1.95 4.57-1.14 5.58-.67 5.58.47 0 1.94-.94 1.94-.94s.34-.07 1.95-3.43c1.61-3.36 3.7-5.7 5.17-6.72 1.41-1.07 2.96-1.67 2.76-.53-.34 1 .06 4.1 1.81 1.68z"/><path id="7xv7b" d="M530.84 360.11s-5.5 5.51-9.33 6.65c-3.83 1.21-3.43 1.21-3.83 1.21-.54 0-.2-1.34-.07-2.01.07-.54.14-1.68.14-2.22 0-.4.74-2.22.53-2.82-.73-2.08-1.54-3.43-6.98 1.07s-7.72 6.92-8.33 6.32c-.6-.6-2.55 1-2.15 1.2.4.2.47.88.47.88s.8 3.7 5.38-.07c4.56-3.76 8.12-7.25 8.86-7.39.74-.13-.4 1.82.07 5.18.47 3.42 3.7 2.82 4.3 2.61.6-.2 7.38-3.22 10.4-6.64 3.1-3.36.54-3.97.54-3.97z"/><path id="7xv7c" d="M601.7 355c-.14-.06-.34.08-.34.21-1.47 4.9-2.95 8.93-2.28 10.61.74 1.88 2.35 2.08 3.22 1.68.6-.2 5.98-3.42 10.95-8.66 0 0-2.48 43.05-8.66 56.08-6.32 13.16-11.08 14.77-15.18 13.77-4.17-1.01-7.39-12.97 4.16-28.75 10.61-14.5 23.44-30.9 34.39-37.48 10.95-6.58 2.69-6.78 2.69-6.78s-22.77 15.92-40.23 42.31c-17.47 26.4-3.3 33.38-1.48 33.65 1.81.34 10.61 2.82 18.27-15.72 7.65-18.46 9.13-60.24 9.13-60.24s.13-1.75-.8-2.01c-.95-.34-1.82.26-5.51 4.03-3.23 3.29-7.32 6.1-8.26 6.78-.07.07-.14 0-.07-.07.4-.87 1.54-3.63 1.81-5.1.34-2.22-.2-3.9-1.81-4.3z"/><path id="7xv7d" d="M532.39 355c-.14-.06-.34.08-.34.21-1.48 4.9-2.95 8.93-2.28 10.61.74 1.88 2.35 2.08 3.22 1.68.6-.2 5.98-3.42 10.95-8.66 0 0-2.48 43.05-8.66 56.08-6.32 13.16-11.09 14.77-15.18 13.77-4.17-1.01-7.39-12.97 4.16-28.75 10.61-14.5 23.44-30.9 34.39-37.48 10.95-6.58 2.68-6.78 2.68-6.78s-22.83 15.85-40.3 42.25c-17.45 26.39-3.28 33.37-1.47 33.64 1.81.34 10.61 2.82 18.27-15.71 7.65-18.47 9.13-60.25 9.13-60.25s.14-1.74-.8-2.01c-.94-.34-1.82.27-5.51 4.03-3.22 3.29-7.32 6.11-8.26 6.78-.07.07-.14 0-.07-.07.4-.87 1.55-3.62 1.81-5.1.34-2.15-.13-3.83-1.74-4.23z"/><path id="7xv7e" d="M560.26 357.56s-4.23 9.94-.87 11.02c2.68.87 6.85-6.85 6.85-6.85s4.43-6.45 4.77-6.45c.47 0 .8.4.06 5.5-1.54 11.56 9.2 8.74 9.2 7.33 0-4.03-5.3 2.35-7.05-3.16-.67-2.22 1.08-6.58.88-8.67-.14-1.6-1.08-3.96-4.57-3.76-2.42.14-5.3 6.59-6.25 7.32-.94.74.74-1.88.74-1.88z"/><path id="7xv7f" d="M587.2 349.17s2.95 2.41.46 3.22c-2.48.8-2.68-2.02-2.68-2.02s.6-.6 1.14-.94c.6-.33-.6-1.14 1.07-.26z"/><path id="7xv7g" d="M586.12 356.55s-.14-2.28-2.49-2.48c-1.74-.14-5.7 10.27-4.97 13.36.4 2.35 4.5 6.05 10.88 2.76 6.32-3.36 12.9-9.74 12.9-9.74v-2.15s-11.96 7.86-14.3 9c-2.36 1.14-5.85 1.54-6.19 1.28-.33-.27.07-5.85 2.76-10.82.87-1.6 1.4-1.2 1.4-1.2z"/><path id="7xv7h" d="M496.05 335.73c-.2 0-.4-.06-.6-.06h-2.02c-.4 0-.8 0-1.27.06-.27 0-.54 0-.8.07-.28.07-.48.13-.61.2-.14.07-.27.27-.27.4-.07.4.07.68.4.81.4.2.74.27 1.08.27 1.4.27 2.62.34 3.62.34a102.17 102.17 0 0 0-3.22 9.94c-1 3.62-1.68 7.45-1.95 11.35a29.8 29.8 0 0 0-.2 5.9c.07.74.14 1.55.27 2.29s.34 1.41.6 2.01c.27.6.6 1.15 1.08 1.55.47.4.94.74 1.61.87.6.07 1 0 1.34-.27.34-.27.54-.6.74-1 .2-.4.34-.94.4-1.48.07-.47.27-1.14.48-2.02.2-.87.53-2.01 1-3.29.47-1.34 1.08-2.89 1.82-4.7a81.39 81.39 0 0 1 2.95-6.31c.07-.27.14-.47.2-.67.07-.14.07-.27.07-.4 0-.14-.07-.28-.2-.28-.34-.06-.8.14-1.48.74-.67.6-1.48 1.88-2.42 3.9-.27.67-.67 1.54-1.07 2.55-.4 1-.87 2.08-1.28 3.23-.4 1.14-.8 2.28-1.14 3.42-.34 1.14-.6 2.22-.74 3.16a39.69 39.69 0 0 1-.47-3.36 31.2 31.2 0 0 1 .2-7.05 64.9 64.9 0 0 1 1.48-7.19 73.08 73.08 0 0 1 2.28-6.78c.88-2.15 1.75-4.17 2.56-5.98 2.08.07 4.16.07 6.24 0h1.41c.6 0 1.28-.07 1.88-.13.6-.07 1.21-.27 1.68-.4.47-.2.8-.48.94-.95.07-.27-.06-.4-.6-.47-.2-.07-.4-.07-.74-.07-3.22-.13-6.52-.2-9.74-.2a65.33 65.33 0 0 1 2.28-4.16 23.82 23.82 0 0 1 1.35-2.08c.33-.47.47-.94.4-1.28-.07-.4-.27-.67-.54-.94-.13-.4-.47-.6-.8-.67-.4-.13-.8-.2-1.08-.2-.33 0-.6 0-.87.07-.27.06-.54.13-.74.2l-.67.2c-.07.07-.2.07-.2.13-.07.07-.14.2-.27.4-.07.07-.47.88-1.21 2.36-.74 1.47-1.61 3.42-2.69 5.9-.13.07-.26.14-.47.07z"/><path id="7xv7i" d="M810.03 369.58v1.14h-9.93v-1.14c1.14 0 1.94-.2 2.41-.53.54-.34.54-.94 0-1.68l-5.9-8.26-4.17 3.56v4.3c0 .93.27 1.6.74 2 .4.41 1.2.61 2.28.61v1.14h-8.66v-1.14c1 0 1.74-.2 2.21-.6.47-.4.74-1.08.74-2.02v-24.04c0-.8-.27-1.34-.74-1.68-.4-.27-1.07-.4-2.01-.4l-.2-.6 5.57-2.09V361l9.6-8.26c.74-.68.81-1.28.34-1.68-.47-.34-1.34-.54-2.69-.54v-1.14h8.94v1.14c-1.01 0-1.82.2-2.55.54-.68.47-1.35 1-2.02 1.6l-5.7 4.91 1.4 1.81 6.05 8.33a5.14 5.14 0 0 0 1.74 1.48c.67.34 1.48.47 2.55.4zm-30.76-2.08c0 .87.2 1.41.6 1.81.41.34 1.22.47 2.43.47v1.15h-8.73v-1.15c1.07 0 1.81-.2 2.28-.47.47-.26.67-.87.67-1.74v-13.7c0-.67-.13-1.14-.54-1.48-.47-.34-1.27-.54-2.41-.54l-.14-.67 5.84-2.08zm-13.16-.47c0 1 .2 1.68.87 2.02.47.4 1.21.6 2.29.6v1.14h-8.67v-1.14c1.08 0 1.82-.2 2.29-.6.47-.4.67-1.08.67-2.02v-11.69c0-1.4-.27-2.41-.8-3.08-.61-.81-1.62-1.21-3.03-1.21-1.41 0-2.69.33-3.96.94a20.5 20.5 0 0 0-3.43 2.41v12.5c0 .94.2 1.6.67 2.01.4.4 1.21.6 2.29.6v1.15h-8.67v-1.14c1.08 0 1.82-.2 2.29-.6.47-.41.67-1.08.67-2.02v-13.1c0-1-.13-1.61-.54-1.95-.4-.33-1.14-.47-2.28-.47l-.14-.67 5.65-1.75v3.97l.2-.2a24.04 24.04 0 0 1 3.42-2.42 9.49 9.49 0 0 1 4.57-1.21c1.75 0 3.16.6 4.16 1.68 1.01 1.14 1.48 2.68 1.48 4.7zm-25.45 1.88c.6-.4 1.27-.94 1.74-1.61l.54.34a7.93 7.93 0 0 1-2.55 2.95c-.94.6-2.02.94-3.1.94-1.33 0-2.4-.4-3.21-1.2-.81-.88-1.21-2.22-1.21-3.9V350.9h-3.43v-.94a5.06 5.06 0 0 0 3.7-2.08c.94-1.28 1.4-3.16 1.54-5.7h.94v7.38h6.04v1.34h-6.04v16.12c0 .8.27 1.41.74 1.88.54.47 1.27.67 2.21.67.68 0 1.35-.2 2.09-.67zm-28.61-16.45a9.12 9.12 0 0 0-2.29 5.84h13.97c-.13-2.75-.8-4.84-1.95-6.18a6.12 6.12 0 0 0-4.76-1.95c-1.88 0-3.56.74-4.97 2.29zm10.54 16.38a10.94 10.94 0 0 0 3.7-3.22l.67.54a13.16 13.16 0 0 1-3.7 3.76 11.3 11.3 0 0 1-5.98 1.54c-3.15 0-5.64-1-7.58-3.09-1.89-2.08-2.83-4.83-2.83-8.19 0-3.16.94-5.84 2.76-7.92a9.42 9.42 0 0 1 7.45-3.23c2.96 0 5.24.87 6.99 2.69 1.74 1.88 2.62 4.43 2.62 7.72h-16.93c0 3.63.8 6.38 2.42 8.13a7.34 7.34 0 0 0 5.7 2.35c1.76 0 3.37-.34 4.71-1.08zm-24.92-18.33v-1.21h7.93v1.14c-1 0-1.81.14-2.35.4-.6.27-1.01.81-1.35 1.48l-7.52 19.14h-.74l-1.74-4.3-6.05-14.84c-.33-.8-.74-1.34-1.2-1.54a5.1 5.1 0 0 0-2.09-.34v-1.14h9v1.14a6.1 6.1 0 0 0-2.42.34c-.53.33-.67.8-.4 1.54l6.05 14.98 5.7-14.91c.27-.54.14-1-.33-1.34a4.8 4.8 0 0 0-2.55-.54zM677 360.3c0-2.88-.6-5.23-1.75-7.11a6.19 6.19 0 0 0-5.5-3.1c-2.42 0-4.24 1.01-5.58 3.1-1.14 1.88-1.68 4.23-1.68 7.11 0 2.83.54 5.18 1.68 6.99a6.28 6.28 0 0 0 5.57 3.16c2.35 0 4.17-1.08 5.51-3.16 1.14-1.81 1.75-4.16 1.75-6.99zm.47-7.79c1.68 2.09 2.48 4.7 2.48 7.86 0 3.1-.8 5.64-2.48 7.73-1.88 2.28-4.43 3.42-7.73 3.42-3.29 0-5.9-1.14-7.72-3.42-1.61-2.09-2.42-4.64-2.42-7.73 0-3.15.8-5.77 2.42-7.86 1.81-2.28 4.43-3.42 7.72-3.42 3.3 0 5.85 1.14 7.73 3.42zm-25.05 8.94a5.14 5.14 0 0 1 1.88 4.36c0 1.82-.8 3.36-2.35 4.43a8.57 8.57 0 0 1-5.04 1.41c-.67 0-1.28-.06-1.95-.2-.4-.06-.87-.2-1.54-.4s-1.08-.27-1.35-.34c-.4-.06-.74-.06-1.07.07l-1.81.74-2.62-6.85.53-.13a19.75 19.75 0 0 0 3.83 3.96 9.92 9.92 0 0 0 6.05 2.01c1.47 0 2.75-.4 3.69-1.27 1-.88 1.48-2.02 1.48-3.43 0-1-.47-1.88-1.41-2.55a16.7 16.7 0 0 0-4.9-2.08c-3.36-1.01-5.65-2.08-6.92-3.23a4.63 4.63 0 0 1-1.68-3.76c0-1.47.6-2.62 1.81-3.56 1.28-.94 3.02-1.4 5.1-1.4a10.25 10.25 0 0 1 3.5.6c.47.06.8.2 1 .2.27.07.54 0 .74-.07l1.68-.8 2.56 6.44-.74.34a11.48 11.48 0 0 0-3.1-3.5 9 9 0 0 0-5.57-2.08c-1.47 0-2.55.27-3.42.94a3.33 3.33 0 0 0-1.28 2.83c0 1 .54 1.8 1.61 2.48.88.54 2.42 1.14 4.7 1.88 3.16.94 5.31 1.95 6.59 2.96z"/><path id="7xv7j" d="M779.48 339.36s1.4 4.5-1.82 5.57c-3.22 1.08-3.42-2.75-3.42-2.75s.8-.87 1.48-1.28c.73-.4 1.54-2.68 3.76-1.54z"/></defs><g><g transform="translate(-490 -326)"><g><use fill="#e73e2d" xlink:href="#7xv7a"/></g><g><use fill="#e73e2d" xlink:href="#7xv7b"/></g><g><use fill="#e73e2d" xlink:href="#7xv7c"/></g><g><use fill="#e73e2d" xlink:href="#7xv7d"/></g><g><use fill="#e73e2d" xlink:href="#7xv7e"/></g><g><use fill="#e73e2d" xlink:href="#7xv7f"/></g><g><use fill="#e73e2d" xlink:href="#7xv7g"/></g><g><use fill="#e73e2d" xlink:href="#7xv7h"/></g><g><g><g><use fill="#070707" xlink:href="#7xv7i"/></g></g></g><g><use fill="#e73e2d" xlink:href="#7xv7j"/></g></g></g></svg>