<svg id="SVGDoc" width="148" height="49" xmlns="http://www.w3.org/2000/svg" version="1.1" xmlns:xlink="http://www.w3.org/1999/xlink" xmlns:avocode="https://avocode.com/" viewBox="0 0 148 49"><defs><path d="M1077.03562,103.19427c0,0 0.7997,-0.61515 0.2153,-1.8147c-0.5844,-1.19955 -2.18379,-0.98424 -2.70667,-0.67666c-0.52288,0.30758 -2.58364,2.42985 -3.44486,4.49062c-0.89197,2.09151 -0.52288,2.55288 -0.30758,2.55288c0.2153,0 0.89197,-0.43061 0.89197,-0.43061c0,0 0.15379,-0.03075 0.89198,-1.56863c0.73818,-1.53789 1.69167,-2.6144 2.36834,-3.07577c0.64591,-0.49212 1.35334,-0.76894 1.26106,-0.24606c-0.15379,0.46136 0.03076,1.87621 0.83046,0.76893z" id="Path-0"/><path d="M1084.47897,103.44033c0,0 -2.52213,2.52213 -4.27531,3.04501c-1.75319,0.55364 -1.56864,0.55364 -1.75319,0.55364c-0.24606,0 -0.09228,-0.61515 -0.03076,-0.92273c0.03076,-0.24606 0.06152,-0.76894 0.06152,-1.015c0,-0.18455 0.33833,-1.01501 0.24606,-1.29182c-0.33833,-0.95349 -0.70742,-1.56865 -3.19879,0.49212c-2.49137,2.06076 -3.53713,3.16804 -3.81395,2.89122c-0.27682,-0.27682 -1.16879,0.46137 -0.98425,0.55364c0.18455,0.09227 0.21531,0.39985 0.21531,0.39985c0,0 0.36909,1.69167 2.46061,-0.03076c2.09152,-1.72242 3.72167,-3.32182 4.06001,-3.38334c0.33833,-0.06152 -0.18455,0.83045 0.03076,2.36834c0.2153,1.56863 1.69167,1.29182 1.96849,1.19954c0.27682,-0.09226 3.38334,-1.47636 4.76744,-3.045c1.41485,-1.53789 0.24606,-1.8147 0.24606,-1.8147z" id="Path-1"/><path d="M1116.92829,101.10275c-0.06152,-0.03076 -0.15379,0.03076 -0.15379,0.09228c-0.67667,2.2453 -1.35335,4.09076 -1.04576,4.8597c0.33833,0.86121 1.07651,0.95349 1.47636,0.76894c0.27682,-0.09227 2.73743,-1.56864 5.0135,-3.96774c0,0 -1.13805,19.71565 -3.96773,25.68262c-2.89124,6.0285 -5.07501,6.76668 -6.95123,6.30532c-1.90698,-0.46136 -3.38336,-5.93623 1.90698,-13.16427c4.8597,-6.64365 10.73439,-14.14851 15.74788,-17.16276c5.0135,-3.01425 1.23033,-3.10653 1.23033,-3.10653c0,0 -10.42685,7.28957 -18.42383,19.37732c-7.99699,12.08774 -1.50714,15.28654 -0.67668,15.40957c0.83047,0.15378 4.85971,1.29182 8.36607,-7.19729c3.50638,-8.45834 4.18304,-27.58959 4.18304,-27.58959c0,0 0.06152,-0.79969 -0.36908,-0.92273c-0.4306,-0.15379 -0.83046,0.12304 -2.52213,1.84546c-1.47636,1.50713 -3.35258,2.79895 -3.78319,3.10652c-0.03076,0.03076 -0.06152,0 -0.03076,-0.03076c0.18452,-0.39984 0.70743,-1.6609 0.83044,-2.33758c0.15379,-1.015 -0.09227,-1.78393 -0.83044,-1.96848z" id="Path-2"/><path d="M1085.1864,101.10275c-0.06152,-0.03076 -0.15379,0.03076 -0.15379,0.09227c-0.67667,2.24531 -1.35334,4.09077 -1.04576,4.85971c0.33833,0.86121 1.07652,0.95349 1.47636,0.76894c0.27682,-0.09227 2.73743,-1.56864 5.0135,-3.96774c0,0 -1.13803,19.71564 -3.96773,25.68262c-2.89122,6.0285 -5.07502,6.76669 -6.95123,6.30533c-1.90697,-0.46137 -3.38334,-5.93623 1.90697,-13.16428c4.8597,-6.64364 10.73441,-14.14851 15.74791,-17.16276c5.0135,-3.01424 1.23031,-3.10652 1.23031,-3.10652c0,0 -10.4576,7.2588 -18.45458,19.34655c-7.99699,12.08776 -1.50713,15.28655 -0.67667,15.40959c0.83046,0.15379 4.85971,1.29182 8.36608,-7.19729c3.50638,-8.45835 4.18304,-27.5896 4.18304,-27.5896c0,0 0.06152,-0.79969 -0.36909,-0.92273c-0.43061,-0.15379 -0.83045,0.12304 -2.52212,1.84546c-1.47637,1.50712 -3.35259,2.79894 -3.78318,3.10651c-0.03077,0.03077 -0.06153,0 -0.03077,-0.03075c0.18455,-0.39985 0.70742,-1.66092 0.83045,-2.33759c0.15379,-0.98425 -0.06151,-1.75319 -0.79969,-1.93774z" id="Path-3"/><path d="M1097.95082,102.27154c0,0 -1.93774,4.55213 -0.39985,5.04425c1.2303,0.39985 3.13728,-3.13728 3.13728,-3.13728c0,0 2.02999,-2.95272 2.18378,-2.95272c0.21532,0 0.3691,0.18454 0.03077,2.52211c-0.70743,5.29032 4.21379,3.9985 4.21379,3.35258c0,-1.84546 -2.42985,1.07652 -3.22954,-1.44561c-0.30758,-1.015 0.49213,-3.01425 0.39985,-3.96773c-0.06152,-0.73819 -0.49213,-1.8147 -2.09153,-1.72242c-1.10727,0.06152 -2.42985,3.01424 -2.86045,3.35258c-0.43061,0.33833 0.33833,-0.86121 0.33833,-0.86121z" id="Path-4"/><path d="M1110.28462,98.42684c0,0 1.35332,1.10728 0.21532,1.47637c-1.13803,0.36909 -1.23032,-0.92273 -1.23032,-0.92273c0,0 0.27681,-0.27682 0.52287,-0.43061c0.27684,-0.15379 -0.27682,-0.52287 0.49213,-0.12303z" id="Path-5"/><path d="M1109.79251,101.81018c0,0 -0.06152,-1.04576 -1.13805,-1.13803c-0.7997,-0.06152 -2.6144,4.70592 -2.27606,6.12077c0.18456,1.07652 2.06076,2.76819 4.98276,1.26106c2.89119,-1.53789 5.90544,-4.45987 5.90544,-4.45987v-0.98424c0,0 -5.47485,3.59864 -6.55139,4.12152c-1.07651,0.52289 -2.67589,0.70743 -2.82968,0.5844c-0.15378,-0.12302 0.03075,-2.67591 1.26106,-4.95197c0.39984,-0.73818 0.64592,-0.55364 0.64592,-0.55364z" id="Path-6"/><path d="M1068.54652,92.27531c-0.09227,0 -0.18455,-0.03076 -0.27682,-0.03076h-0.36909c-0.18455,0 -0.36909,0 -0.55364,0c-0.18455,0 -0.36909,0 -0.5844,0.03076c-0.12303,0 -0.24606,0 -0.36909,0.03076c-0.12303,0.03076 -0.2153,0.06152 -0.27682,0.09227c-0.06152,0.03076 -0.12303,0.12303 -0.12303,0.18455c-0.03076,0.18455 0.03076,0.30758 0.18455,0.36909c0.18455,0.09227 0.33833,0.12303 0.49212,0.12303c0.64591,0.12303 1.19955,0.15379 1.66091,0.15379c-0.52288,1.35334 -1.015,2.86046 -1.47637,4.55213c-0.46136,1.66091 -0.76894,3.4141 -0.89197,5.19804c-0.12303,0.98425 -0.15379,1.87622 -0.09227,2.70667c0.03076,0.33833 0.06152,0.70743 0.12303,1.04576c0.06152,0.33833 0.15379,0.64591 0.27682,0.92273c0.12303,0.27682 0.27682,0.52288 0.49212,0.70742c0.2153,0.18455 0.43061,0.33833 0.73818,0.39985c0.27682,0.03075 0.46136,0 0.61515,-0.12303c0.15379,-0.12303 0.24606,-0.27682 0.33833,-0.46136c0.09227,-0.18455 0.15379,-0.43061 0.18455,-0.67667c0.03076,-0.2153 0.12303,-0.52288 0.2153,-0.92273c0.09227,-0.39985 0.24606,-0.92273 0.46136,-1.50712c0.2153,-0.61515 0.49212,-1.32258 0.83046,-2.15304c0.33833,-0.83046 0.7997,-1.8147 1.35334,-2.89122c0.03076,-0.12303 0.06152,-0.2153 0.09227,-0.30758c0.03076,-0.06151 0.03076,-0.12303 0.03076,-0.18454c0,-0.06151 -0.03076,-0.12303 -0.09227,-0.12303c-0.15379,-0.03076 -0.36909,0.06152 -0.67667,0.33833c-0.30758,0.27682 -0.67667,0.86121 -1.10727,1.78394c-0.12303,0.30758 -0.30758,0.70743 -0.49212,1.16879c-0.18455,0.46136 -0.39985,0.95349 -0.5844,1.47637c-0.18455,0.52288 -0.36909,1.04576 -0.52288,1.56864c-0.15379,0.52288 -0.27682,1.015 -0.33833,1.44561c-0.06151,-0.33834 -0.09227,-0.52288 -0.12303,-0.73818c-0.03076,-0.2153 -0.06151,-0.49212 -0.09227,-0.7997c-0.09227,-1.04576 -0.06152,-2.12228 0.09227,-3.22955c0.15379,-1.10728 0.39985,-2.21455 0.67667,-3.29107c0.30758,-1.07652 0.64591,-2.09152 1.04576,-3.10652c0.39985,-0.98425 0.7997,-1.90697 1.16879,-2.73743c0.95349,0.03076 1.90697,0.03076 2.86046,0c0.15379,0 0.36909,0 0.64591,0c0.27682,0 0.58439,-0.03076 0.86121,-0.06151c0.27682,-0.03076 0.55364,-0.12303 0.76894,-0.18455c0.2153,-0.09227 0.36909,-0.2153 0.43061,-0.43061c0.03076,-0.12303 -0.03076,-0.18455 -0.27682,-0.2153c-0.09227,-0.03076 -0.18455,-0.03076 -0.33833,-0.03076c-1.47637,-0.06152 -2.98349,-0.09227 -4.45986,-0.09227c0.39985,-0.76894 0.73818,-1.41485 1.04576,-1.90697c0.30758,-0.52288 0.52288,-0.83046 0.61515,-0.95349c0.15379,-0.2153 0.2153,-0.43061 0.18455,-0.5844c-0.03076,-0.18455 -0.12303,-0.30758 -0.24606,-0.43061c-0.06152,-0.18455 -0.2153,-0.27682 -0.36909,-0.30758c-0.18455,-0.06152 -0.36909,-0.09227 -0.49212,-0.09227c-0.15379,0 -0.27682,0 -0.39985,0.03076c-0.12303,0.03076 -0.24606,0.06152 -0.33833,0.09227l-0.30758,0.09227c-0.03076,0.03076 -0.09227,0.03076 -0.09227,0.06152c-0.03076,0.03076 -0.06151,0.09227 -0.12303,0.18455c-0.03076,0.03076 -0.2153,0.39985 -0.55364,1.07652c-0.33833,0.67667 -0.73818,1.56864 -1.23031,2.70667c-0.06152,0.03076 -0.12303,0.06152 -0.2153,0.03076z" id="Path-7"/><path d="M1211.16969,107.5926c0.30758,0.1538 0.67669,0.21531 1.16876,0.18455v0.52288h-4.55209v-0.52288c0.52286,0 0.89197,-0.09227 1.1073,-0.24606c0.24603,-0.15378 0.24603,-0.4306 0,-0.76894l-2.70667,-3.78319l-1.90701,1.63016v1.96849c0,0.43061 0.12305,0.73818 0.33835,0.92273c0.18454,0.18455 0.55362,0.27682 1.04575,0.27682v0.52288h-3.96774v-0.52288c0.46139,0 0.79968,-0.09227 1.01501,-0.27682c0.21533,-0.18455 0.33835,-0.49213 0.33835,-0.92273v-11.01124c0,-0.36909 -0.12302,-0.61515 -0.33835,-0.76894c-0.18457,-0.12303 -0.49213,-0.18455 -0.92273,-0.18455l-0.09229,-0.27682l2.55292,-0.95349v10.4576l4.39832,-3.78319c0.33835,-0.30758 0.36908,-0.58439 0.15378,-0.76894c-0.21531,-0.15379 -0.61515,-0.24606 -1.23029,-0.24606v-0.52288h4.09079v0.52288c-0.46142,0 -0.83047,0.09227 -1.16885,0.24606c-0.30756,0.2153 -0.61511,0.46136 -0.9227,0.73818l-2.61441,2.24531l0.64587,0.83046l2.76825,3.81395c0.24606,0.30758 0.49212,0.52288 0.79968,0.67667zM1198.25145,106.82369c0,0.39984 0.09229,0.6459 0.27686,0.83045c0.18454,0.15378 0.55362,0.2153 1.10724,0.2153v0.52288h-3.99847v-0.52288c0.49213,0 0.83045,-0.09227 1.04575,-0.2153c0.21531,-0.12303 0.30756,-0.39985 0.30756,-0.7997v-6.27456c0,-0.30758 -0.06149,-0.52288 -0.24603,-0.67667c-0.21533,-0.15379 -0.58441,-0.24606 -1.10727,-0.24606l-0.06152,-0.30758l2.6759,-0.95349v8.4276zM1192.22293,106.60838c0,0.46137 0.09228,0.76895 0.39987,0.92273c0.21528,0.18454 0.55365,0.27682 1.04575,0.27682v0.52288h-3.96771v-0.52288c0.49213,0 0.83045,-0.09227 1.04572,-0.27682c0.21534,-0.18455 0.30759,-0.49212 0.30759,-0.92273v-5.35183c0,-0.64591 -0.12302,-1.10727 -0.36908,-1.41485c-0.27682,-0.3691 -0.73819,-0.55364 -1.38409,-0.55364c-0.64594,0 -1.23032,0.15378 -1.81473,0.4306c-0.4613,0.24607 -0.98422,0.61516 -1.5686,1.10728v5.72092c0,0.43061 0.09226,0.73818 0.30759,0.92273c0.18454,0.18454 0.55362,0.27682 1.04575,0.27682v0.52287h-3.96774v-0.52287c0.49216,0 0.83048,-0.09227 1.04578,-0.27682c0.2153,-0.18455 0.30759,-0.49212 0.30759,-0.92273v-5.99774c0,-0.46136 -0.06149,-0.73818 -0.24609,-0.89197c-0.18454,-0.15378 -0.52286,-0.2153 -1.04578,-0.2153l-0.06149,-0.30758l2.58365,-0.7997v1.8147l0.09225,-0.09228c0.64591,-0.52288 1.1688,-0.89197 1.5687,-1.10728c0.67663,-0.36908 1.38403,-0.55363 2.09149,-0.55363c0.79968,0 1.44559,0.27682 1.90695,0.76894c0.4614,0.52287 0.67667,1.2303 0.67667,2.15303v5.29032zM1180.56582,107.46959c0.27682,-0.18455 0.58438,-0.43061 0.79971,-0.73818l0.246,0.15379c-0.30752,0.58439 -0.70736,1.04575 -1.16876,1.35333c-0.43057,0.27682 -0.92272,0.43061 -1.41479,0.43061c-0.61517,0 -1.10733,-0.18454 -1.47638,-0.55363c-0.36908,-0.39986 -0.55365,-1.01501 -0.55365,-1.78395v-7.10501h-1.56863v-0.43061c0.73816,-0.09228 1.29184,-0.39985 1.69162,-0.95349c0.43067,-0.5844 0.64597,-1.44561 0.70746,-2.6144h0.43063v3.38334h2.76819v0.61515h-2.76819v7.38183c0,0.36909 0.12302,0.64591 0.33829,0.86121c0.2461,0.21531 0.58442,0.30758 1.01505,0.30758c0.30759,0 0.61514,-0.09227 0.95346,-0.30758zM1167.46306,99.93395c-0.64591,0.70743 -0.98421,1.5994 -1.04575,2.67592h6.39761c-0.0615,-1.26106 -0.36908,-2.21455 -0.89194,-2.8297c-0.52292,-0.58439 -1.26112,-0.89197 -2.18385,-0.89197c-0.86121,0 -1.63018,0.33834 -2.27608,1.04576zM1172.29202,107.43883c0.61517,-0.30758 1.16879,-0.79971 1.69168,-1.47637l0.30759,0.24606c-0.52289,0.76894 -1.07654,1.32258 -1.69168,1.72243c-0.76895,0.46137 -1.66092,0.70743 -2.73744,0.70743c-1.44562,0 -2.58365,-0.46136 -3.47563,-1.41485c-0.86121,-0.95349 -1.29181,-2.21455 -1.29181,-3.75243c0,-1.44561 0.43061,-2.67591 1.26105,-3.6294c0.86125,-0.98425 1.99927,-1.47637 3.41411,-1.47637c1.35338,0 2.39913,0.39985 3.19881,1.2303c0.79971,0.86121 1.19955,2.03 1.19955,3.53713h-7.75095c0,1.66091 0.36911,2.92197 1.10727,3.72167c0.64592,0.70743 1.50713,1.07652 2.61443,1.07652c0.7997,0 1.53786,-0.15379 2.15303,-0.49212zM1160.88094,99.04199v-0.55363h3.62939v0.52288c-0.46138,0 -0.83048,0.06152 -1.07651,0.18455c-0.27681,0.12303 -0.46138,0.36909 -0.61517,0.67667l-3.44484,8.76593h-0.33836l-0.7997,-1.96849l-2.76819,-6.79744c-0.15376,-0.36909 -0.33832,-0.61515 -0.55362,-0.70742c-0.18454,-0.09227 -0.52289,-0.15379 -0.95349,-0.15379v-0.52288h4.12154v0.52288c-0.55365,0 -0.92273,0.06152 -1.10727,0.15379c-0.24608,0.15378 -0.30759,0.36909 -0.18457,0.70742l2.76819,6.85895l2.61441,-6.8282c0.12302,-0.24606 0.06153,-0.46137 -0.15379,-0.61515c-0.24605,-0.1538 -0.61516,-0.24607 -1.16878,-0.24607zM1151.40758,103.5326c0,-1.32258 -0.27684,-2.3991 -0.79971,-3.26031c-0.61513,-0.95349 -1.4456,-1.41485 -2.52214,-1.41485c-1.10724,0 -1.93769,0.46136 -2.55286,1.41485c-0.52289,0.86121 -0.76892,1.93773 -0.76892,3.26031c0,1.29183 0.24603,2.36834 0.76892,3.1988c0.61518,0.95349 1.44559,1.44561 2.55286,1.44561c1.07654,0 1.90701,-0.49212 2.52214,-1.44561c0.52287,-0.83046 0.79971,-1.90698 0.79971,-3.1988zM1151.62287,99.96472c0.76895,0.95348 1.13806,2.15303 1.13806,3.59864c0,1.41485 -0.36911,2.58364 -1.13806,3.53712c-0.86119,1.04576 -2.02998,1.56864 -3.53714,1.56864c-1.50711,0 -2.70665,-0.52288 -3.53708,-1.56864c-0.7382,-0.95348 -1.10728,-2.12227 -1.10728,-3.53712c0,-1.44561 0.36908,-2.64515 1.10728,-3.59864c0.83043,-1.04576 2.02997,-1.56864 3.53708,-1.56864c1.50716,0 2.67595,0.52288 3.53714,1.56864zM1140.15028,104.05555c0.5844,0.49211 0.89197,1.13802 0.86121,1.99924c0,0.83046 -0.36911,1.53788 -1.07652,2.03c-0.61513,0.4306 -1.3841,0.6459 -2.30681,0.6459c-0.30759,0 -0.5844,-0.03076 -0.89197,-0.09227c-0.18454,-0.03076 -0.39985,-0.09228 -0.70744,-0.18455c-0.30757,-0.09228 -0.4921,-0.12304 -0.61516,-0.15379c-0.18454,-0.03076 -0.33835,-0.03076 -0.49213,0.03075l-0.83044,0.33833l-1.19954,-3.13728l0.24606,-0.06152c0.61517,0.7997 1.19955,1.41486 1.7532,1.8147c0.83045,0.61516 1.75318,0.92274 2.76819,0.92274c0.67666,0 1.26104,-0.18455 1.69167,-0.5844c0.46135,-0.39985 0.67665,-0.92273 0.67665,-1.56864c0,-0.46137 -0.2153,-0.86121 -0.6459,-1.16879c-0.43061,-0.30758 -1.16881,-0.64591 -2.24532,-0.95349c-1.53789,-0.46137 -2.58365,-0.95349 -3.16803,-1.47637c-0.52288,-0.43061 -0.76894,-1.015 -0.76894,-1.72243c0,-0.67666 0.27681,-1.19954 0.83044,-1.63015c0.5844,-0.43061 1.38411,-0.64591 2.33759,-0.64591c0.30756,0 0.61516,0.03076 0.92273,0.09227c0.18454,0.03076 0.39985,0.09228 0.67667,0.18455c0.21527,0.03075 0.3691,0.09227 0.46135,0.09227c0.12306,0.03075 0.2461,0 0.33835,-0.03076l0.76897,-0.36909l1.16878,2.95273l-0.33836,0.15379c-0.30756,-0.5844 -0.7997,-1.10728 -1.41483,-1.5994c-0.83047,-0.64591 -1.69168,-0.95349 -2.5529,-0.95349c-0.67666,0 -1.16879,0.12302 -1.56863,0.4306c-0.39986,0.30757 -0.5844,0.73818 -0.5844,1.29182c0,0.46136 0.24606,0.83045 0.73817,1.13803c0.39988,0.24606 1.10727,0.52288 2.15305,0.86121c1.4456,0.43061 2.42984,0.89197 3.01425,1.35334z" id="Path-8"/><path d="M1198.34369,93.93622c0,0 0.64587,2.06076 -0.83047,2.55288c-1.47635,0.49212 -1.5686,-1.26106 -1.5686,-1.26106c0,0 0.36905,-0.39985 0.67661,-0.5844c0.33838,-0.18455 0.70746,-1.2303 1.72247,-0.70742z" id="Path-9"/></defs><desc>Generated with Avocode.</desc><g transform="matrix(1,0,0,1,-1065,-88)"><g><title>Group 27</title><g><title>Path 13</title><use xlink:href="#Path-0" fill="#e73e2d" fill-opacity="1"/></g><g><title>Path 14</title><use xlink:href="#Path-1" fill="#e73e2d" fill-opacity="1"/></g><g><title>Path 15</title><use xlink:href="#Path-2" fill="#e73e2d" fill-opacity="1"/></g><g><title>Path 16</title><use xlink:href="#Path-3" fill="#e73e2d" fill-opacity="1"/></g><g><title>Path 17</title><use xlink:href="#Path-4" fill="#e73e2d" fill-opacity="1"/></g><g><title>Path 18</title><use xlink:href="#Path-5" fill="#e73e2d" fill-opacity="1"/></g><g><title>Path 19</title><use xlink:href="#Path-6" fill="#e73e2d" fill-opacity="1"/></g><g><title>Path 20</title><use xlink:href="#Path-7" fill="#e73e2d" fill-opacity="1"/></g><g><title>Group 12</title><g><title>Group 11</title><g><title>Path 21</title><use xlink:href="#Path-8" fill="#ffffff" fill-opacity="1"/></g></g></g><g><title>Path 22</title><use xlink:href="#Path-9" fill="#e73e2d" fill-opacity="1"/></g></g></g></svg>