<svg xmlns="http://www.w3.org/2000/svg" xmlns:xlink="http://www.w3.org/1999/xlink" width="148" height="49" viewBox="0 0 148 49"><defs><path id="gvo9a" d="M1077.04 103.2s.8-.62.21-1.82c-.58-1.2-2.18-.98-2.7-.68-.53.31-2.59 2.43-3.45 4.5-.9 2.09-.52 2.55-.3 2.55.2 0 .88-.43.88-.43s.16-.03.9-1.57a8.14 8.14 0 0 1 2.36-3.08c.65-.5 1.36-.77 1.27-.24-.16.46.03 1.87.83.76z"/><path id="gvo9b" d="M1084.48 103.44s-2.52 2.52-4.28 3.05c-1.75.55-1.56.55-1.75.55-.25 0-.1-.62-.03-.92.03-.25.06-.77.06-1.02 0-.18.34-1.01.25-1.3-.34-.94-.71-1.56-3.2.5-2.5 2.06-3.54 3.17-3.82 2.9-.27-.28-1.16.45-.98.55.18.09.22.4.22.4s.36 1.69 2.46-.03c2.09-1.73 3.72-3.33 4.06-3.39.33-.06-.19.83.03 2.37.21 1.57 1.69 1.3 1.97 1.2.27-.1 3.38-1.48 4.76-3.04 1.42-1.54.25-1.82.25-1.82z"/><path id="gvo9c" d="M1116.93 101.1c-.06-.03-.16.03-.16.1-.67 2.24-1.35 4.09-1.04 4.85.34.87 1.08.96 1.48.77.27-.09 2.73-1.56 5-3.96 0 0-1.13 19.71-3.96 25.68-2.89 6.03-5.07 6.77-6.95 6.3-1.9-.46-3.38-5.93 1.9-13.16 4.87-6.64 10.74-14.15 15.75-17.16 5.02-3.02 1.23-3.11 1.23-3.11s-10.42 7.29-18.42 19.38c-8 12.09-1.5 15.28-.68 15.4.83.16 4.86 1.3 8.37-7.19 3.5-8.46 4.18-27.59 4.18-27.59s.06-.8-.37-.92c-.43-.16-.83.12-2.52 1.84-1.47 1.51-3.35 2.8-3.78 3.11-.03.03-.06 0-.03-.03.18-.4.7-1.66.83-2.34.15-1.01-.1-1.78-.83-1.97z"/><path id="gvo9d" d="M1085.19 101.1c-.07-.03-.16.03-.16.1-.67 2.24-1.35 4.09-1.04 4.85.34.87 1.07.96 1.47.77.28-.09 2.74-1.56 5.02-3.96 0 0-1.14 19.71-3.97 25.68-2.9 6.03-5.08 6.77-6.95 6.3-1.9-.46-3.39-5.93 1.9-13.16 4.86-6.64 10.74-14.15 15.75-17.16 5.02-3.02 1.23-3.11 1.23-3.11s-10.45 7.26-18.45 19.35c-8 12.08-1.5 15.28-.68 15.4.83.16 4.86 1.3 8.37-7.2 3.5-8.45 4.18-27.58 4.18-27.58s.06-.8-.37-.92c-.43-.16-.83.12-2.52 1.84-1.48 1.5-3.35 2.8-3.78 3.1-.03.04-.07 0-.03-.02.18-.4.7-1.66.83-2.34.15-.98-.07-1.75-.8-1.94z"/><path id="gvo9e" d="M1097.95 102.27s-1.94 4.55-.4 5.05c1.23.4 3.14-3.14 3.14-3.14s2.03-2.95 2.18-2.95c.22 0 .37.18.03 2.52-.7 5.29 4.22 4 4.22 3.35 0-1.84-2.43 1.08-3.23-1.45-.31-1.01.49-3 .4-3.96-.06-.74-.5-1.82-2.1-1.73-1.1.07-2.42 3.02-2.86 3.36-.43.34.34-.86.34-.86z"/><path id="gvo9f" d="M1110.28 98.43s1.36 1.1.22 1.47c-1.14.37-1.23-.92-1.23-.92s.28-.28.52-.43c.28-.15-.27-.52.5-.12z"/><path id="gvo9g" d="M1109.8 101.81s-.07-1.05-1.15-1.14c-.8-.06-2.61 4.7-2.27 6.12.18 1.08 2.06 2.77 4.98 1.26 2.9-1.53 5.9-4.46 5.9-4.46v-.98s-5.47 3.6-6.54 4.12c-1.08.52-2.68.7-2.83.59-.16-.13.03-2.68 1.26-4.96.4-.73.64-.55.64-.55z"/><path id="gvo9h" d="M1068.55 92.28c-.1 0-.19-.04-.28-.04h-.92c-.19 0-.37 0-.59.04-.12 0-.24 0-.37.03l-.27.09c-.06.03-.13.12-.13.18-.03.19.03.31.19.37a8.74 8.74 0 0 0 2.15.28 46.8 46.8 0 0 0-1.48 4.55 26.24 26.24 0 0 0-.89 5.2c-.12.98-.15 1.88-.09 2.7.03.34.06.71.12 1.05.07.34.16.65.28.92.12.28.28.53.5.71.2.19.42.34.73.4.28.03.46 0 .62-.12.15-.12.24-.28.33-.46.1-.19.16-.43.19-.68.03-.21.12-.52.21-.92.1-.4.25-.93.47-1.51a37.27 37.27 0 0 1 2.18-5.04c.03-.13.06-.22.1-.31.02-.06.02-.12.02-.19 0-.06-.03-.12-.09-.12-.15-.03-.37.06-.68.34-.3.28-.67.86-1.1 1.78l-.5 1.17c-.18.46-.4.96-.58 1.48-.19.52-.37 1.04-.52 1.57-.16.52-.28 1.01-.34 1.44a18.18 18.18 0 0 1-.22-1.54 14.3 14.3 0 0 1 .1-3.22c.15-1.11.4-2.22.67-3.3.31-1.07.65-2.09 1.05-3.1.4-.99.8-1.9 1.17-2.74.95.03 1.9.03 2.86 0h.64c.28 0 .59-.03.86-.06.28-.03.56-.12.77-.19.22-.09.37-.21.43-.43.03-.12-.03-.18-.27-.21-.1-.03-.19-.03-.34-.03-1.48-.06-2.98-.1-4.46-.1a29.92 29.92 0 0 1 1.66-2.86c.15-.21.21-.43.18-.58a.76.76 0 0 0-.24-.43.47.47 0 0 0-.37-.3 1.7 1.7 0 0 0-.5-.1c-.15 0-.27 0-.4.03-.12.03-.24.06-.33.1l-.3.09c-.04.03-.1.03-.1.06l-.12.18a57.04 57.04 0 0 0-1.78 3.78c-.07.04-.13.07-.22.04z"/><path id="gvo9i" d="M1211.17 107.6c.3.15.68.2 1.17.18v.52h-4.55v-.52c.52 0 .89-.1 1.1-.25.25-.15.25-.43 0-.77l-2.7-3.78-1.91 1.63v1.97c0 .43.12.74.34.92.18.18.55.28 1.04.28v.52h-3.96v-.52c.46 0 .8-.1 1.01-.28.22-.18.34-.5.34-.92V95.57c0-.37-.12-.62-.34-.77-.18-.13-.5-.19-.92-.19l-.1-.27 2.56-.96v10.46l4.4-3.78c.34-.31.37-.59.15-.77-.21-.16-.61-.25-1.23-.25v-.52h4.1v.52c-.47 0-.84.1-1.18.25-.3.21-.61.46-.92.74l-2.61 2.24.64.83 2.77 3.82c.25.3.5.52.8.67zm-12.92-.78c0 .4.1.65.28.83.18.16.55.22 1.1.22v.52h-4v-.52c.5 0 .84-.1 1.05-.22.22-.12.31-.4.31-.8v-6.27c0-.3-.06-.52-.25-.68-.21-.15-.58-.24-1.1-.24l-.06-.31 2.67-.95v8.42zm-6.03-.21c0 .46.1.77.4.92.22.19.56.28 1.05.28v.52h-3.97v-.52c.5 0 .83-.1 1.05-.28.21-.18.3-.5.3-.92v-5.35c0-.65-.12-1.11-.36-1.42-.28-.37-.74-.55-1.39-.55-.64 0-1.23.15-1.81.43-.47.24-.99.61-1.57 1.1v5.73c0 .43.09.74.3.92.19.18.56.28 1.05.28v.52h-3.97v-.52c.5 0 .83-.1 1.05-.28.21-.18.3-.5.3-.92v-6c0-.46-.05-.74-.24-.9-.18-.15-.52-.2-1.05-.2l-.06-.32 2.59-.8v1.82l.09-.1a11 11 0 0 1 1.57-1.1 4.34 4.34 0 0 1 2.09-.55c.8 0 1.44.27 1.9.77.47.52.68 1.23.68 2.15v5.29zm-11.65.86c.27-.18.58-.43.8-.74l.24.16c-.3.58-.7 1.04-1.17 1.35-.43.28-.92.43-1.41.43a2 2 0 0 1-1.48-.55c-.37-.4-.55-1.02-.55-1.79v-7.1h-1.57v-.43c.74-.1 1.3-.4 1.7-.96.42-.58.64-1.44.7-2.61h.43v3.38h2.77v.62h-2.77v7.38c0 .37.12.64.34.86.24.21.58.3 1.01.3.31 0 .62-.09.96-.3zm-13.1-7.54c-.65.71-1 1.6-1.05 2.68h6.4a4.68 4.68 0 0 0-.9-2.83 2.8 2.8 0 0 0-2.18-.9c-.86 0-1.63.35-2.28 1.05zm4.82 7.5a5 5 0 0 0 1.7-1.47l.3.25a6.03 6.03 0 0 1-1.69 1.72c-.77.46-1.66.7-2.74.7a4.5 4.5 0 0 1-3.47-1.4 5.4 5.4 0 0 1-1.3-3.76c0-1.44.44-2.67 1.27-3.63.86-.98 2-1.47 3.41-1.47 1.35 0 2.4.4 3.2 1.23.8.86 1.2 2.03 1.2 3.53h-7.75c0 1.66.37 2.92 1.1 3.72.65.71 1.51 1.08 2.62 1.08.8 0 1.54-.15 2.15-.5zm-11.4-8.39v-.55h3.62V99c-.46 0-.83.06-1.08.19-.27.12-.46.36-.61.67l-3.45 8.77h-.33l-.8-1.97-2.77-6.8c-.16-.37-.34-.61-.56-.7-.18-.1-.52-.16-.95-.16v-.52h4.12V99c-.55 0-.92.06-1.1.16-.25.15-.31.36-.19.7l2.77 6.86 2.61-6.83c.13-.24.06-.46-.15-.61a2.2 2.2 0 0 0-1.17-.25zm-9.48 4.5c0-1.33-.28-2.4-.8-3.27a2.83 2.83 0 0 0-2.52-1.41c-1.11 0-1.94.46-2.56 1.41a6.17 6.17 0 0 0-.77 3.26c0 1.3.25 2.37.77 3.2a2.88 2.88 0 0 0 2.56 1.45c1.07 0 1.9-.5 2.52-1.45.52-.83.8-1.9.8-3.2zm.21-3.58a5.54 5.54 0 0 1 1.14 3.6c0 1.42-.37 2.59-1.14 3.54a4.32 4.32 0 0 1-3.53 1.57c-1.51 0-2.71-.52-3.54-1.57a5.58 5.58 0 0 1-1.1-3.54 5.7 5.7 0 0 1 1.1-3.6 4.28 4.28 0 0 1 3.54-1.56c1.5 0 2.67.52 3.53 1.56zm-11.47 4.1c.58.49.9 1.13.86 2a2.4 2.4 0 0 1-1.08 2.02c-.61.44-1.38.65-2.3.65a6.15 6.15 0 0 1-1.6-.28c-.3-.09-.5-.12-.62-.15a.88.88 0 0 0-.49.03l-.83.34-1.2-3.14.25-.06c.61.8 1.2 1.42 1.75 1.82.83.61 1.75.92 2.77.92.68 0 1.26-.19 1.7-.59.45-.4.67-.92.67-1.57 0-.46-.22-.86-.65-1.16a7.64 7.64 0 0 0-2.24-.96 8.69 8.69 0 0 1-3.17-1.47 2.12 2.12 0 0 1-.77-1.73c0-.67.28-1.2.83-1.63a4.7 4.7 0 0 1 3.94-.37c.21.04.37.1.46.1.12.03.24 0 .34-.03l.77-.37 1.16 2.95-.33.15c-.31-.58-.8-1.1-1.42-1.6a4.12 4.12 0 0 0-2.55-.95c-.68 0-1.17.12-1.57.43-.4.3-.59.74-.59 1.3 0 .45.25.82.74 1.13.4.25 1.11.52 2.16.86 1.44.43 2.43.9 3.01 1.36z"/><path id="gvo9j" d="M1198.34 93.94s.65 2.06-.83 2.55c-1.47.5-1.57-1.26-1.57-1.26s.37-.4.68-.59c.34-.18.7-1.23 1.72-.7z"/></defs><g><g transform="translate(-1065 -88)"><g><use fill="#e73e2d" xlink:href="#gvo9a"/></g><g><use fill="#e73e2d" xlink:href="#gvo9b"/></g><g><use fill="#e73e2d" xlink:href="#gvo9c"/></g><g><use fill="#e73e2d" xlink:href="#gvo9d"/></g><g><use fill="#e73e2d" xlink:href="#gvo9e"/></g><g><use fill="#e73e2d" xlink:href="#gvo9f"/></g><g><use fill="#e73e2d" xlink:href="#gvo9g"/></g><g><use fill="#e73e2d" xlink:href="#gvo9h"/></g><g><g><g><use fill="#fff" xlink:href="#gvo9i"/></g></g></g><g><use fill="#e73e2d" xlink:href="#gvo9j"/></g></g></g></svg>